<?xml version="1.0" standalone="no"?>
<!DOCTYPE svg PUBLIC "-//W3C//DTD SVG 20010904//EN"
 "http://www.w3.org/TR/2001/REC-SVG-20010904/DTD/svg10.dtd">
<svg version="1.0" xmlns="http://www.w3.org/2000/svg"
 width="1080.000000pt" height="1082.000000pt" viewBox="0 0 1080.000000 1082.000000"
 preserveAspectRatio="xMidYMid meet">

<g transform="translate(0.000000,1082.000000) scale(0.100000,-0.100000)"
fill="#000000" stroke="none">
<path d="M0 10805 c0 -12 16 -15 88 -15 119 0 130 -4 125 -43 -5 -50 14 -87
47 -87 31 0 106 62 96 79 -4 5 -1 13 6 17 9 6 5 11 -12 16 -17 5 -9 6 24 4 30
-2 44 -1 35 5 -17 10 266 10 361 -1 65 -7 65 -7 15 -9 -32 -1 -45 -4 -37 -10
8 -5 33 -6 57 -3 37 4 44 1 49 -16 8 -23 36 -35 80 -34 28 1 49 18 40 33 -2 4
1 11 8 15 8 5 6 10 -8 15 -13 5 -6 8 24 8 25 1 41 -3 37 -8 -3 -6 3 -14 12
-20 10 -6 13 -11 6 -11 -7 0 -10 -15 -7 -42 2 -24 1 -35 -2 -25 -6 20 -9 20
-35 6 -11 -5 -17 -14 -14 -19 3 -5 -10 -41 -30 -79 -19 -39 -35 -85 -35 -103
0 -29 -32 -89 -67 -126 -7 -7 -13 -18 -13 -23 0 -5 -11 -15 -25 -21 -15 -7
-25 -20 -25 -32 -1 -20 -1 -20 -14 -3 -8 10 -17 47 -21 84 -7 68 -35 113 -70
113 -18 0 -59 -24 -92 -54 -20 -17 -29 -18 -79 -9 -51 9 -57 8 -69 -11 -19
-31 -17 -81 6 -102 23 -20 25 -44 4 -44 -8 0 -15 -4 -15 -9 0 -10 -50 -61 -60
-61 -4 0 -15 18 -24 40 -11 27 -22 40 -35 40 -17 0 -19 -4 -10 -32 11 -40 11
-51 1 -44 -4 2 -14 0 -22 -5 -13 -8 -13 -10 0 -18 8 -6 17 -6 20 -1 11 17 84
16 102 -2 13 -13 24 -15 45 -9 65 19 94 -25 52 -77 -15 -20 -19 -35 -14 -60 7
-36 -14 -72 -42 -72 -7 0 -13 -4 -13 -10 0 -5 -14 -25 -30 -43 -17 -19 -30
-39 -30 -44 0 -6 -9 -18 -21 -29 -39 -36 -58 -114 -27 -114 5 0 8 -26 7 -58
-1 -40 3 -66 15 -84 11 -17 16 -42 14 -81 -1 -34 3 -62 10 -69 9 -9 12 -8 12
5 0 9 7 17 15 17 17 0 19 9 5 44 -11 30 0 41 36 32 15 -4 24 -14 24 -26 0 -11
5 -20 11 -20 5 0 7 -4 4 -10 -3 -5 -17 -10 -31 -10 -51 0 -16 -67 52 -102 51
-25 59 -47 14 -40 -17 2 -30 0 -30 -6 0 -17 -89 -72 -116 -72 -19 0 -28 8 -39
33 -8 19 -12 42 -9 53 3 14 -6 26 -32 43 -26 16 -33 25 -24 31 8 5 11 28 9 71
-4 101 -1 129 16 129 8 0 15 9 15 20 0 13 -7 20 -20 20 -11 0 -20 7 -20 15 0
8 -9 15 -20 15 -11 0 -20 -7 -20 -15 0 -35 -19 -11 -23 28 l-4 42 -1 -43 c-1
-30 2 -44 13 -48 20 -8 19 -34 -2 -49 -9 -7 -18 -23 -18 -36 -1 -13 -2 -40 -3
-60 -1 -20 -11 -48 -23 -63 -18 -23 -22 -24 -35 -11 -19 19 -29 19 -48 0 -8
-8 -18 -15 -23 -15 -4 -1 -18 -9 -31 -20 -28 -23 -22 -60 9 -60 11 0 31 -8 45
-17 25 -16 27 -16 36 0 12 23 65 23 72 0 3 -10 5 -43 6 -73 1 -70 2 -66 -6
-126 -6 -46 -4 -53 17 -67 20 -15 25 -15 39 -2 22 19 70 19 98 -1 18 -12 22
-25 22 -65 0 -27 5 -49 10 -49 6 0 10 9 10 20 0 11 4 20 9 20 16 0 63 -48 57
-58 -3 -5 -26 -15 -51 -21 -34 -9 -48 -18 -55 -37 -13 -34 -14 -31 20 -49 41
-21 55 -19 105 18 38 28 44 37 45 70 0 20 -4 37 -8 37 -4 0 -12 15 -17 33 -6
17 -14 30 -19 29 -15 -6 -29 29 -17 41 8 8 11 6 11 -6 0 -9 5 -17 10 -17 6 0
10 16 10 36 0 27 -7 43 -26 59 -28 24 -28 29 6 80 11 17 23 36 26 43 10 19 52
14 64 -7 7 -14 6 -23 -3 -33 -8 -7 -12 -18 -10 -24 2 -6 -5 -14 -15 -16 -19
-5 -38 -58 -21 -58 5 0 9 -26 9 -58 0 -36 6 -66 15 -78 13 -17 14 -17 15 -1 0
32 121 15 134 -20 9 -22 -32 -83 -55 -83 -18 0 -19 -5 -13 -37 4 -21 13 -47
20 -58 20 -28 17 -52 -10 -82 -22 -24 -26 -25 -62 -13 -22 6 -49 16 -62 22
-18 10 -26 8 -48 -13 -18 -17 -24 -31 -21 -48 6 -30 -8 -72 -29 -88 -12 -9
-21 -6 -42 14 -24 22 -27 33 -28 88 -1 47 -6 70 -22 93 -12 16 -22 44 -22 60
0 22 -6 32 -20 37 -27 9 -97 -12 -104 -31 -9 -22 -8 -24 9 -24 8 0 15 -6 15
-14 0 -19 -28 -40 -53 -41 -11 0 -22 -6 -24 -12 -3 -8 4 -13 16 -13 12 0 21
-2 21 -4 0 -8 -72 -76 -81 -76 -12 0 -2 -65 14 -99 9 -19 9 -25 0 -28 -7 -3
-13 -11 -13 -18 0 -20 -25 -25 -54 -10 l-27 14 2 -220 c1 -192 3 -218 16 -208
12 10 16 10 24 -2 12 -19 11 -22 -6 -45 -19 -25 -19 -39 2 -71 11 -16 16 -41
14 -68 -2 -38 0 -43 23 -49 14 -3 26 -11 26 -16 0 -12 40 -14 41 -2 4 42 19
69 19 35 0 -16 5 -20 20 -16 21 6 59 -30 60 -55 0 -8 9 -25 20 -39 22 -29 25
-55 10 -84 -9 -15 -22 -19 -71 -19 -33 0 -91 -5 -130 -11 l-69 -12 0 -210 c0
-130 4 -224 12 -248 9 -31 8 -48 -2 -79 -11 -34 -11 -42 5 -66 25 -39 27 -133
3 -148 -17 -10 -18 -119 -18 -2299 0 -2051 2 -2289 15 -2283 37 14 260 186
283 219 62 85 136 143 220 173 43 16 70 41 87 80 17 41 68 98 113 126 20 12
66 51 101 87 48 51 66 78 77 115 16 61 50 96 137 145 46 25 110 79 210 176
210 206 547 471 687 541 41 20 88 48 103 60 20 17 41 24 71 24 54 0 148 46
196 95 38 39 99 75 127 75 26 1 77 27 163 85 148 99 174 110 271 107 61 -2
108 -10 160 -27 89 -31 93 -31 151 0 25 13 79 38 119 54 41 16 99 42 130 59
73 38 149 48 225 28 88 -22 174 -24 204 -3 31 20 67 13 76 -17 4 -11 27 -46
51 -77 33 -43 49 -56 64 -52 21 6 26 -16 8 -34 -17 -17 0 -35 26 -29 26 7 55
-1 55 -15 0 -5 -9 -9 -21 -9 -12 0 -19 -5 -16 -12 2 -7 14 -13 26 -12 11 0 22
-2 22 -5 1 -3 3 -16 4 -29 3 -33 22 -49 37 -34 19 19 38 14 38 -9 0 -15 -5
-19 -15 -15 -11 4 -15 -2 -15 -23 0 -15 3 -31 7 -35 9 -9 11 -23 16 -122 4
-72 8 -86 31 -111 l27 -28 -2 50 c-1 28 -6 55 -10 60 -4 6 -10 34 -14 63 -6
60 8 75 47 48 12 -9 30 -16 39 -16 9 0 19 -7 23 -15 3 -8 14 -15 25 -15 11 0
21 -9 24 -21 4 -16 11 -19 27 -14 15 5 26 0 41 -19 16 -20 26 -24 48 -20 23 5
36 0 61 -25 18 -17 37 -31 42 -31 5 0 6 -4 3 -10 -3 -5 -20 -7 -38 -4 -30 6
-31 5 -12 -9 11 -8 43 -24 70 -35 98 -41 162 -53 287 -55 l123 -2 75 38 c70
35 110 56 285 152 39 21 117 63 175 93 127 66 324 181 402 234 31 21 61 38 67
38 6 0 15 8 20 19 6 10 24 24 41 31 16 7 30 16 30 20 0 9 57 40 73 40 8 0 51
34 112 89 11 10 28 21 38 24 9 4 17 14 18 24 0 17 1 17 7 0 7 -16 9 -15 30 5
12 13 32 36 44 51 13 19 27 27 39 24 10 -3 17 0 16 7 -1 6 8 10 21 9 16 -2 22
2 22 17 0 11 4 20 8 20 5 0 20 9 33 20 13 11 29 23 34 28 6 5 46 28 90 52 44
23 87 49 96 56 8 8 23 14 32 14 9 0 17 4 17 9 0 5 12 16 28 24 51 26 186 104
315 181 18 10 104 54 192 98 88 43 177 88 199 99 40 22 41 22 65 -21 5 -8 16
-67 25 -130 34 -234 114 -673 138 -750 23 -76 22 -75 101 -76 45 0 83 -6 102
-16 17 -9 49 -19 73 -23 75 -12 235 -139 323 -255 58 -77 169 -188 222 -222
63 -41 173 -102 296 -165 80 -41 105 -61 172 -133 43 -47 108 -132 143 -190
36 -58 70 -110 75 -117 6 -7 11 -15 11 -18 0 -4 34 -46 76 -93 42 -48 83 -98
92 -112 9 -14 43 -68 77 -120 205 -322 310 -544 424 -900 29 -91 66 -196 82
-235 72 -178 104 -328 119 -557 6 -90 15 -183 20 -208 20 -100 33 -367 28
-602 -3 -134 -7 -250 -9 -258 -3 -13 13 -15 100 -15 l104 0 33 59 33 59 3
1193 c2 656 6 1195 10 1199 11 12 39 -22 32 -39 -6 -16 30 -55 52 -56 14 0 24
-23 24 -56 0 -17 6 -24 20 -24 11 0 20 -4 20 -9 0 -11 82 -101 93 -101 4 0 7
1933 7 4295 l0 4295 -5400 0 c-4793 0 -5400 -2 -5400 -15z m10540 -27 c0 -22
-12 -58 -19 -58 -6 0 -31 49 -31 62 0 4 11 8 25 8 14 0 25 -6 25 -12z m-9277
-5 c-13 -2 -33 -2 -45 0 -13 2 -3 4 22 4 25 0 35 -2 23 -4z m170 0 c-7 -2 -21
-2 -30 0 -10 3 -4 5 12 5 17 0 24 -2 18 -5z m-313 -107 c0 -12 -9 -27 -20 -33
-29 -19 -43 12 -24 50 12 23 18 26 30 16 8 -6 14 -21 14 -33z m-517 -348 c2
-29 3 -55 1 -57 -6 -6 -64 58 -64 70 0 5 12 9 27 9 26 0 26 1 7 15 -19 14 -19
14 2 15 19 0 22 -7 27 -52z m277 -154 c0 -8 -4 -12 -10 -9 -5 3 -10 10 -10 16
0 5 5 9 10 9 6 0 10 -7 10 -16z m-139 -31 c9 -8 19 -27 23 -44 3 -16 14 -32
23 -36 24 -9 34 -26 21 -34 -18 -11 -45 2 -57 27 -6 13 -19 24 -29 24 -18 0
-42 23 -61 58 -23 43 31 46 80 5z m-71 -92 c0 -7 7 -19 16 -26 11 -7 14 -19
10 -32 -10 -31 -64 -83 -80 -77 -29 11 -52 114 -25 114 5 0 9 6 9 13 0 7 7 22
15 34 15 21 17 21 35 5 11 -9 20 -23 20 -31z m-110 -57 c0 -8 -4 -12 -10 -9
-5 3 -10 10 -10 16 0 5 5 9 10 9 6 0 10 -7 10 -16z m4784 -345 l6 -30 41 22
c28 14 44 17 48 10 5 -7 18 -8 41 -1 25 7 36 6 41 -2 4 -7 6 -15 3 -19 -10
-17 33 -18 63 -2 27 14 37 15 53 5 11 -6 32 -12 47 -12 16 0 38 -3 51 -6 21
-6 21 -7 5 -20 -17 -13 -17 -13 1 -14 13 0 17 -5 13 -20 -3 -11 3 -30 14 -44
23 -29 24 -42 4 -50 -22 -8 -18 -43 5 -49 26 -7 29 -74 3 -84 -9 -4 -19 -1
-21 5 -9 28 -22 -3 -22 -51 0 -46 4 -55 31 -76 20 -16 29 -31 26 -43 -3 -11 0
-18 9 -18 10 0 14 -12 14 -41 0 -43 31 -99 55 -99 7 0 16 -12 19 -26 4 -14 20
-33 36 -42 42 -24 42 -62 0 -62 -30 0 -42 -21 -20 -35 26 -16 8 -27 -33 -22
l-44 6 5 -52 c3 -28 14 -67 24 -85 18 -33 18 -35 1 -48 -10 -7 -24 -14 -31
-14 -13 0 -52 -80 -52 -106 0 -7 -9 -19 -20 -26 -11 -7 -20 -17 -20 -23 0 -5
-20 -31 -45 -57 -38 -38 -45 -51 -39 -72 8 -32 24 -34 24 -3 0 29 18 47 45 47
18 0 20 -5 17 -36 -3 -27 -12 -41 -32 -52 -27 -16 -38 -56 -19 -68 18 -11 8
-24 -17 -24 -25 0 -26 2 -21 40 6 44 0 52 -30 44 -39 -10 -19 -104 22 -104 7
0 15 -7 19 -15 4 -12 0 -14 -19 -9 -40 10 -98 11 -126 2 -14 -5 -36 -5 -50 0
-25 9 -69 -3 -69 -20 0 -12 -78 -10 -85 2 -12 19 -53 10 -73 -15 -11 -14 -25
-25 -31 -25 -6 0 -11 -4 -11 -8 0 -11 -77 -50 -105 -54 -11 -2 -24 -13 -30
-26 -5 -12 -15 -22 -22 -22 -18 0 -44 -45 -37 -64 3 -9 15 -16 25 -16 21 0 22
-4 13 -37 -5 -17 -14 -23 -35 -23 -22 0 -29 -5 -29 -20 0 -12 -7 -20 -17 -20
-10 0 -27 -7 -38 -16 -12 -9 -30 -12 -47 -8 -16 3 -28 1 -28 -4 0 -5 -15 -15
-32 -23 -51 -20 -208 -158 -208 -183 0 -6 -4 -17 -9 -25 -8 -12 -12 -12 -25
-2 -11 9 -16 10 -16 2 0 -6 5 -11 10 -11 20 0 9 -21 -15 -30 -14 -5 -26 -17
-26 -27 -2 -32 -4 -37 -19 -70 -8 -17 -22 -34 -30 -36 -12 -3 -16 -16 -16 -48
1 -42 3 -44 29 -42 32 2 33 -4 7 -37 -25 -32 -25 -45 -1 -79 l20 -27 -25 -19
-24 -18 32 -19 c17 -11 27 -23 21 -26 -19 -13 -20 -37 -6 -86 8 -27 12 -59 9
-72 -3 -12 -2 -26 4 -29 12 -7 13 -86 1 -135 -4 -20 -4 -45 0 -57 5 -13 3 -28
-6 -40 -8 -10 -15 -27 -15 -39 0 -11 -6 -29 -14 -39 -8 -11 -11 -25 -8 -33 3
-8 1 -17 -4 -21 -5 -3 -14 -16 -21 -27 -18 -34 32 -80 96 -89 l49 -7 -3 -75
c-2 -49 -8 -79 -17 -84 -10 -7 -8 -12 8 -23 12 -9 24 -31 27 -52 3 -20 14 -45
23 -55 9 -10 17 -34 18 -52 2 -49 95 -131 127 -111 5 3 9 -4 9 -15 0 -17 8
-20 57 -23 46 -2 59 -7 61 -20 3 -15 -4 -18 -46 -18 -32 0 -54 5 -62 15 -7 8
-22 15 -34 15 -12 0 -26 4 -32 9 -5 5 -34 12 -64 15 -51 6 -58 5 -79 -18 -18
-20 -28 -23 -42 -16 -23 13 -49 13 -49 1 0 -5 8 -12 18 -14 9 -3 2 -5 -15 -6
-28 -1 -33 -5 -33 -26 0 -24 -23 -35 -34 -17 -3 5 -41 8 -84 8 l-79 -1 1 30
c1 18 -4 30 -11 30 -7 0 -12 -3 -10 -6 1 -3 -4 -14 -12 -23 -11 -13 -23 -16
-51 -11 -34 6 -40 2 -94 -49 -48 -46 -64 -56 -93 -56 -41 0 -73 -15 -73 -36 0
-11 10 -14 43 -12 39 3 42 1 45 -24 4 -31 26 -37 41 -11 8 16 11 15 30 -7 l22
-25 15 22 16 22 25 -29 c14 -17 33 -30 43 -30 9 0 28 -8 41 -18 39 -31 66 -32
103 -7 43 29 98 47 120 39 24 -9 2 -32 -40 -40 -19 -3 -37 -10 -40 -15 -8 -13
15 -49 32 -49 8 0 13 4 9 9 -3 6 4 15 15 21 16 9 20 8 20 -5 0 -8 7 -15 15
-15 8 0 15 9 15 19 0 32 21 36 43 10 23 -29 20 -28 43 -7 16 14 23 14 43 4 18
-10 20 -14 8 -19 -8 -3 -24 -3 -34 -1 -11 3 -30 -4 -44 -15 -23 -19 -23 -21
-7 -37 19 -20 100 -36 170 -34 37 0 50 -4 62 -21 14 -21 47 -28 85 -18 8 2 17
-4 19 -13 2 -11 -2 -18 -12 -18 -26 0 -18 -30 10 -40 44 -17 95 -62 89 -78 -3
-8 2 -20 11 -26 9 -7 17 -27 18 -44 1 -20 9 -38 23 -47 16 -11 22 -25 21 -48
-1 -18 4 -42 10 -54 7 -12 12 -29 12 -39 0 -14 -2 -14 -16 -3 -13 10 -17 10
-24 -1 -5 -8 -6 -18 -4 -22 3 -4 -6 -8 -20 -8 -21 0 -26 -5 -26 -24 0 -14 -5
-28 -10 -31 -6 -4 -8 -10 -6 -14 3 -4 -6 -18 -19 -29 -14 -12 -25 -28 -25 -36
0 -8 -11 -23 -25 -34 -14 -11 -25 -25 -25 -31 0 -6 -6 -11 -14 -11 -7 0 -19
-7 -26 -15 -7 -9 -20 -13 -27 -11 -9 4 -13 0 -12 -12 2 -9 -1 -27 -5 -39 -6
-18 -15 -23 -42 -23 l-35 0 19 -28 c24 -32 19 -82 -9 -89 -16 -4 -16 -8 -3
-39 8 -19 12 -35 9 -35 -3 -1 -10 -2 -16 -3 -6 0 -17 -9 -24 -20 -10 -13 -22
-17 -41 -13 -32 6 -56 -1 -48 -14 3 -5 -2 -9 -10 -9 -9 0 -16 -4 -16 -8 0 -14
38 -44 47 -39 5 3 15 2 23 -3 20 -12 4 -26 -37 -33 -25 -5 -33 -3 -33 8 0 8
-3 15 -6 15 -12 0 -33 -34 -34 -52 0 -24 -20 -23 -20 1 0 13 -9 20 -30 23 -21
3 -30 0 -30 -9 0 -8 4 -11 10 -8 6 3 10 1 10 -4 0 -6 -4 -11 -10 -11 -5 0 -10
-26 -10 -57 0 -34 -4 -53 -8 -45 -5 7 -16 10 -24 7 -25 -10 -32 14 -12 36 16
17 16 22 4 29 -9 6 -16 6 -18 0 -2 -6 -9 -10 -16 -10 -14 0 -15 24 -2 53 10
22 0 50 -17 45 -6 -3 -13 -14 -15 -26 -4 -23 -55 -66 -66 -55 -13 13 -5 34 16
42 l23 8 -23 7 c-15 5 -30 1 -49 -14 -24 -19 -28 -19 -36 -5 -8 15 -11 15 -25
1 -15 -12 -20 -13 -36 -1 -18 14 -18 15 8 24 37 15 34 41 -6 43 -18 1 -44 1
-58 0 -22 -1 -25 3 -25 31 0 27 -3 32 -22 30 -18 -2 -23 2 -23 19 0 11 7 26
17 33 18 14 9 39 -12 31 -16 -6 -37 17 -34 36 4 31 -2 46 -21 51 -14 3 -19 13
-19 33 1 65 -5 79 -33 82 -17 2 -28 9 -28 18 0 8 -7 17 -15 20 -9 4 -14 13
-13 22 2 11 -5 16 -21 17 -34 0 -38 22 -7 36 19 9 26 20 26 41 0 38 -29 35
-48 -5 -7 -15 -18 -27 -23 -27 -6 0 -6 8 1 20 12 23 3 25 -35 8 -14 -6 -25
-17 -25 -25 0 -21 -18 -15 -26 9 -4 13 -2 24 5 26 18 6 13 40 -8 47 -18 5 -18
8 -5 33 17 33 -1 45 -24 16 -13 -16 -14 -17 -9 -1 4 9 3 17 -1 17 -10 0 -39
80 -61 168 -15 63 -16 71 -2 80 14 10 13 12 -6 18 -23 6 -33 44 -13 44 6 0 10
7 10 15 0 8 -8 15 -18 15 -11 0 -22 13 -30 33 -10 27 -10 34 4 44 14 10 12 13
-13 26 -25 13 -31 26 -52 118 -41 175 -57 275 -76 469 -17 183 -19 374 -5 485
50 379 70 630 64 785 -8 171 21 509 46 551 17 27 34 -8 31 -65 -1 -30 2 -57 8
-60 6 -4 8 -13 5 -20 -3 -7 2 -19 11 -26 18 -15 31 -2 59 56 8 16 27 36 41 44
18 10 22 16 13 22 -10 6 -9 8 3 8 9 0 27 9 41 19 13 11 37 21 53 23 l30 4 -25
11 c-14 6 -34 7 -46 2 -18 -6 -21 -5 -17 12 10 37 37 41 129 19 47 -11 91 -23
96 -26 15 -10 -13 -24 -47 -24 -43 0 -133 -49 -163 -88 -19 -25 -31 -33 -49
-29 -29 5 -31 -13 -2 -20 14 -4 19 -12 16 -24 -3 -11 -1 -21 3 -24 5 -3 5 -17
1 -33 -6 -22 -2 -32 21 -54 16 -15 28 -37 28 -51 0 -19 7 -28 30 -35 20 -7 28
-16 24 -25 -9 -24 15 -30 42 -12 14 9 33 13 43 10 12 -3 21 0 25 10 8 21 4 30
-14 27 -23 -3 -38 11 -46 43 -12 51 -9 101 9 128 18 29 92 71 106 62 5 -3 7
-23 4 -45 -7 -50 10 -95 55 -142 34 -35 36 -51 9 -54 -7 0 -28 -2 -48 -2 -24
-1 -39 -8 -43 -18 -9 -24 -1 -27 24 -12 18 11 23 10 36 -7 14 -19 16 -19 28
-2 15 20 62 23 68 5 3 -9 10 -7 24 6 19 19 19 19 25 -19 8 -46 33 -68 70 -60
17 4 30 1 39 -10 17 -21 42 -19 74 6 19 15 25 27 21 40 -4 13 -1 21 12 26 10
4 24 13 31 20 11 11 10 13 -7 13 -12 0 -21 -4 -21 -10 0 -5 -13 -10 -30 -10
-16 0 -30 3 -30 6 0 3 20 25 45 48 48 46 57 77 30 112 -20 27 -19 33 10 44 14
5 25 15 25 21 0 17 -40 79 -51 79 -5 0 -13 10 -18 23 -6 17 -4 25 11 35 15 11
16 17 7 28 -6 8 -18 14 -25 14 -8 0 -14 9 -14 21 0 11 -7 27 -16 36 -8 9 -14
27 -12 42 3 22 -4 29 -45 49 -27 14 -54 36 -62 52 -17 33 -46 45 -74 31 -14
-8 -28 -7 -53 3 -42 18 -156 12 -198 -9 -32 -17 -55 -12 -46 10 6 17 -44 29
-76 20 -103 -31 -183 -104 -204 -187 -8 -28 -16 -53 -19 -56 -14 -14 -15 14
-4 89 8 58 9 120 3 208 -12 181 -8 271 20 401 23 111 34 150 62 215 7 17 17
49 23 70 21 86 91 277 131 361 60 126 153 283 167 284 7 0 17 10 24 23 21 41
72 87 98 87 13 0 39 11 57 25 30 23 36 24 81 14 79 -17 206 -38 238 -38 19 -1
40 8 57 23 14 14 28 22 31 20 3 -3 20 -10 39 -14 18 -5 58 -16 88 -25 30 -9
73 -18 95 -20 22 -1 61 -6 86 -10 49 -8 70 5 50 29 -9 11 1 15 56 21 46 5 68
4 71 -4 2 -6 29 -11 64 -11 46 0 67 5 91 22 21 15 50 24 87 26 30 2 57 5 58 7
11 10 31 -10 36 -36z m-4728 -314 c3 -14 13 -25 21 -25 11 0 12 -8 7 -37 -7
-42 -14 -56 -14 -30 0 10 -8 17 -20 17 -34 0 -54 62 -28 88 18 18 27 15 34
-13z m872 -104 c3 -31 2 -33 -20 -27 -13 3 -28 6 -34 6 -15 0 -25 26 -17 46 4
10 16 14 37 12 27 -3 31 -7 34 -37z m-804 11 c-1 -7 -2 -21 -2 -32 -2 -25 -19
-26 -24 -2 -6 26 3 53 16 49 6 -2 11 -9 10 -15z m581 -559 c16 -37 12 -122 -6
-139 -21 -19 -27 -11 -40 60 -7 39 -7 62 1 76 13 25 35 26 45 3z m4820 -6 c8
-9 10 -19 4 -28 -7 -11 -9 -11 -9 4 0 9 -7 17 -15 17 -8 0 -15 5 -15 10 0 14
19 12 35 -3z m-118 -53 c-3 -4 -14 -3 -24 0 -15 6 -15 8 -3 16 16 10 39 -4 27
-16z m43 -29 c10 -12 10 -15 -4 -15 -9 0 -16 7 -16 15 0 8 2 15 4 15 2 0 9 -7
16 -15z m-58 -42 c7 -10 25 -24 40 -32 23 -12 26 -17 16 -29 -8 -9 -14 -10
-16 -3 -2 6 -24 21 -49 32 -37 17 -42 23 -33 35 16 19 26 18 42 -3z m-82 -48
c-7 -8 -16 -15 -20 -15 -4 0 -10 7 -14 15 -4 11 2 15 21 15 21 0 24 -2 13 -15z
m-4839 -5 c5 0 9 -7 9 -15 0 -15 -40 -22 -53 -9 -11 11 5 35 20 30 8 -3 19 -6
24 -6z m10 -237 c-7 -13 -11 -5 -19 32 -6 27 -8 53 -6 57 3 4 0 8 -5 8 -18 0
-12 28 7 32 14 3 18 -7 25 -55 4 -32 4 -65 -2 -74z m-660 -43 c10 -6 19 -19
19 -30 0 -10 5 -22 11 -26 7 -4 0 -14 -18 -25 -34 -23 -36 -23 -62 -1 -21 16
-21 19 -6 55 16 39 25 43 56 27z m-143 -33 c12 -24 11 -32 -3 -53 -32 -50 -68
-6 -50 63 8 32 36 27 53 -10z m5522 13 c0 -5 -5 -10 -11 -10 -5 0 -7 5 -4 10
3 6 8 10 11 10 2 0 4 -4 4 -10z m-5100 -73 c0 -12 -4 -28 -9 -36 -13 -20 -42
4 -34 27 16 45 43 50 43 9z m-180 13 c0 -5 -2 -10 -4 -10 -3 0 -8 5 -11 10 -3
6 -1 10 4 10 6 0 11 -4 11 -10z m3 -103 c3 -8 1 -20 -4 -28 -11 -19 -34 3 -26
25 8 20 23 21 30 3z m-123 -13 c0 -2 -11 -4 -25 -4 -14 0 -25 4 -25 9 0 4 11
6 25 3 14 -2 25 -6 25 -8z m68 -61 c4 -15 -36 -55 -51 -50 -22 7 -20 38 2 44
12 3 21 10 21 15 0 13 23 5 28 -9z m180 -70 c3 -20 -1 -23 -32 -23 -28 0 -36
4 -36 18 0 26 10 33 40 30 17 -2 26 -10 28 -25z m156 -46 c14 -22 -3 -51 -31
-55 -13 -2 -26 -18 -37 -45 l-16 -42 -18 30 c-25 41 -26 105 -3 105 10 0 26 9
35 19 20 22 52 16 70 -12z m4960 -17 c7 -16 11 -31 8 -35 -3 -3 -32 -3 -65 1
-45 5 -61 4 -68 -7 -7 -11 -9 -10 -9 4 0 13 -8 17 -37 17 l-37 0 38 20 c22 10
42 17 46 15 4 -3 25 1 46 9 47 16 59 12 78 -24z m-1784 -14 c0 -14 -14 -36
-22 -36 -5 0 -6 5 -3 10 3 6 1 10 -5 10 -6 0 -8 5 -5 10 6 10 35 14 35 6z
m1915 -26 c3 -5 2 -10 -4 -10 -5 0 -13 5 -16 10 -3 6 -2 10 4 10 5 0 13 -4 16
-10z m-4575 -36 c14 -37 12 -64 -5 -64 -19 0 -36 41 -28 69 7 28 21 26 33 -5z
m4200 7 c0 -6 -4 -13 -10 -16 -5 -3 -10 1 -10 9 0 9 5 16 10 16 6 0 10 -4 10
-9z m-4752 -98 c16 -36 16 -40 -9 -75 -17 -24 -19 -32 -9 -38 20 -12 -94 -43
-122 -34 -13 4 -28 7 -35 6 -20 -4 -35 35 -23 58 6 11 14 20 19 20 5 0 21 18
36 39 29 42 40 48 95 50 29 1 37 -4 48 -26z m4555 -2 c-7 -26 -48 -67 -90 -90
-52 -27 -43 -2 22 64 55 55 78 64 68 26z m-1200 4 c1 -5 -6 -11 -15 -13 -11
-2 -18 3 -18 13 0 17 30 18 33 0z m1413 4 c3 -6 8 -37 11 -68 3 -39 12 -67 29
-93 14 -20 23 -41 20 -46 -16 -27 -118 -3 -180 41 -23 17 -34 18 -56 10 -19
-7 -31 -7 -43 2 -21 15 -22 25 -1 25 10 0 14 6 11 14 -6 16 11 36 30 36 7 0
29 18 49 39 24 27 46 41 67 44 18 2 37 5 44 5 6 1 15 -3 19 -9z m74 -69 c-9
-6 -19 -5 -25 1 -6 6 -5 13 5 19 9 6 19 5 25 -1 6 -6 5 -13 -5 -19z m-185
-128 c17 -5 29 -12 27 -16 -2 -5 7 -14 20 -20 13 -7 22 -20 22 -29 -1 -14 7
-17 40 -17 34 0 48 -6 71 -30 19 -20 25 -34 19 -40 -14 -14 -129 2 -130 18 -3
22 -4 23 -23 12 -24 -12 -53 2 -106 53 -21 20 -40 35 -43 32 -3 -3 -12 1 -20
8 -12 9 -16 9 -19 0 -7 -20 -23 -15 -23 7 0 11 -6 20 -12 20 -9 0 -8 4 2 10
16 10 127 5 175 -8z m-4548 2 c-3 -3 -12 -4 -19 -1 -8 3 -5 6 6 6 11 1 17 -2
13 -5z m3373 -4 c0 -5 -2 -10 -4 -10 -3 0 -8 5 -11 10 -3 6 -1 10 4 10 6 0 11
-4 11 -10z m-3765 -103 c11 -41 -8 -70 -48 -74 -32 -3 -39 0 -49 21 -12 29 0
52 37 66 35 15 54 11 60 -13z m4949 -58 c11 -11 27 -19 36 -19 9 0 25 -9 34
-19 10 -11 31 -25 47 -31 32 -13 30 -30 -3 -30 -20 0 -20 -1 -5 -18 10 -10 17
-24 17 -30 0 -22 27 -12 38 13 6 14 16 25 22 25 6 0 21 -11 34 -25 13 -14 33
-25 45 -25 12 0 19 -4 16 -10 -4 -6 -23 -7 -44 -4 -37 6 -63 -7 -41 -21 5 -3
10 -11 10 -16 0 -14 -72 -43 -79 -31 -14 21 -54 34 -87 27 -32 -6 -34 -4 -34
23 0 16 -7 35 -15 42 -8 7 -15 21 -15 30 0 35 -10 47 -35 42 -19 -3 -27 2 -36
21 -9 21 -8 28 10 46 12 12 21 26 21 32 0 14 39 1 64 -22z m-4754 11 c0 -5 9
-10 20 -10 21 0 25 -16 14 -57 -7 -25 -31 -33 -62 -22 -27 10 -30 59 -6 83 18
18 34 21 34 6z m5040 -275 c0 -8 -7 -15 -15 -15 -26 0 -18 20 13 29 1 1 2 -6
2 -14z m-200 -30 c38 -32 73 -46 68 -27 -3 9 25 52 34 52 4 0 20 -12 36 -27
15 -16 38 -35 50 -43 17 -12 24 -28 28 -77 7 -64 24 -92 60 -97 23 -3 32 -37
28 -103 -2 -37 1 -55 12 -64 14 -11 13 -14 -8 -25 l-23 -13 28 -1 c27 0 36
-13 17 -25 -20 -12 -10 -55 20 -85 36 -36 38 -53 8 -72 -31 -21 -15 -41 28
-33 27 5 34 3 34 -10 0 -8 6 -15 13 -15 6 0 4 -5 -5 -11 -21 -12 -24 -45 -5
-56 15 -9 26 -58 33 -143 2 -30 5 -68 7 -84 1 -17 10 -33 22 -40 11 -6 23 -15
27 -21 5 -6 8 -5 8 3 0 7 5 10 10 7 12 -8 10 -65 -3 -82 -6 -9 -5 -18 4 -29
10 -13 10 -17 -1 -24 -10 -6 -14 -25 -12 -58 2 -48 1 -50 -31 -57 -17 -5 -38
-8 -45 -8 -8 1 -23 -14 -34 -33 -25 -43 -46 -44 -50 -1 l-3 32 -22 -45 c-12
-25 -27 -64 -34 -87 -11 -39 -13 -40 -29 -25 -9 10 -20 32 -24 51 -3 19 -13
42 -21 51 -13 14 -13 19 -1 35 17 24 5 65 -26 84 -19 11 -23 11 -33 -3 -18
-24 -23 -20 -31 19 -3 19 -10 38 -15 41 -5 3 -16 21 -24 40 -10 24 -20 34 -36
34 -12 0 -19 3 -16 7 12 12 -25 43 -52 43 -24 1 -25 1 -7 15 18 14 15 35 -6
35 -5 0 -27 14 -48 30 -21 17 -42 30 -47 30 -6 0 -15 11 -21 25 -14 29 -42 33
-42 6 0 -10 -7 -24 -15 -31 -9 -8 -15 -9 -15 -2 0 6 -17 12 -37 14 -33 3 -38
6 -37 26 0 14 -12 36 -28 52 -15 16 -28 37 -28 47 0 11 -9 29 -19 40 -20 21
-20 21 1 39 11 11 24 28 29 39 5 11 13 27 17 35 28 48 44 80 62 117 11 23 25
45 31 49 6 3 14 17 19 30 5 13 16 24 24 24 9 0 20 9 26 20 6 11 16 20 22 20
24 0 48 34 48 67 0 26 -4 33 -20 33 -11 0 -20 3 -20 8 1 9 66 42 85 42 8 0 17
12 21 28 10 49 23 72 41 72 11 0 14 3 7 8 -19 12 -34 50 -28 66 5 12 0 16 -20
16 -14 0 -26 5 -26 10 0 6 5 10 10 10 6 0 10 5 10 10 0 6 -9 10 -20 10 -11 0
-20 5 -20 10 0 18 17 11 60 -25z m395 -44 c3 -6 -4 -15 -16 -22 l-22 -11 24
-14 c13 -7 19 -13 13 -14 -18 0 5 -80 22 -80 8 0 14 6 14 13 0 8 4 7 10 -3 7
-11 10 -4 10 28 0 40 2 42 29 42 26 0 29 -3 33 -40 3 -36 1 -40 -18 -40 -16 0
-26 -10 -34 -32 -11 -29 -13 -30 -19 -13 -9 29 -39 30 -61 3 l-19 -23 -1 33
c0 17 -4 32 -10 32 -5 0 -10 -4 -10 -10 0 -5 -7 -10 -15 -10 -23 0 -18 51 8
80 12 14 22 31 23 38 1 6 2 21 3 32 1 21 25 28 36 11z m-5415 -167 c11 -12 10
-18 -3 -32 -16 -15 -18 -15 -34 0 -13 14 -14 20 -3 32 7 9 16 16 20 16 4 0 13
-7 20 -16z m5395 -80 c30 -19 32 -34 6 -34 -11 0 -21 -5 -23 -12 -7 -20 -38 0
-38 25 0 40 16 47 55 21z m-5731 -380 c16 -15 20 -34 16 -63 -1 -9 4 -12 15
-7 31 11 5 -13 -42 -39 -55 -30 -73 -27 -73 13 0 29 21 90 36 105 12 12 31 8
48 -9z m4680 -329 c-4 -8 -10 -12 -15 -9 -14 8 -10 24 6 24 9 0 12 -6 9 -15z
m206 -164 c0 -24 -18 -37 -31 -24 -13 13 -1 43 17 43 8 0 14 -9 14 -19z m217
-21 c14 -17 30 -29 37 -28 17 3 56 -12 56 -22 0 -5 16 -14 36 -20 19 -7 40
-20 47 -31 6 -10 19 -19 29 -19 9 0 20 -4 23 -10 3 -5 14 -10 24 -10 11 0 25
-13 33 -31 14 -28 16 -29 21 -9 7 29 43 23 40 -7 -3 -25 13 -40 47 -45 19 -2
24 -8 22 -23 -2 -11 -3 -34 -2 -51 1 -45 -17 -87 -34 -81 -8 3 -19 0 -25 -7
-12 -14 -5 -46 10 -46 5 0 7 -10 5 -22 -3 -13 -5 -31 -5 -40 -1 -10 -8 -18
-16 -18 -8 0 -15 -7 -15 -15 0 -20 -17 -19 -29 3 -10 16 -10 16 -11 0 0 -13
-8 -18 -27 -18 -33 1 -61 20 -56 38 3 6 -2 12 -9 12 -8 0 -24 14 -36 30 -13
17 -28 30 -35 30 -7 0 -20 12 -29 27 -15 24 -15 31 -1 64 13 34 13 40 -2 69
-14 28 -15 37 -4 57 12 22 10 26 -24 58 -20 19 -43 35 -50 35 -19 0 -79 70
-64 75 7 2 18 5 25 7 10 2 5 12 -13 30 -25 25 -27 48 -4 48 6 0 22 -14 36 -30z
m-161 -47 c-8 -8 -36 10 -36 25 0 13 3 12 20 -3 11 -10 18 -20 16 -22z m774
-142 c0 -5 -7 -14 -15 -21 -16 -14 -18 -10 -9 14 6 17 24 22 24 7z m-2008
-913 c-6 -6 -15 -8 -19 -4 -4 4 -1 11 7 16 19 12 27 3 12 -12z m88 -37 c0 -5
-6 -14 -14 -20 -16 -13 -32 2 -21 19 8 12 35 13 35 1z m-3 -127 c-3 -3 -12 -4
-19 -1 -8 3 -5 6 6 6 11 1 17 -2 13 -5z m476 -371 c4 -3 2 -12 -4 -19 -12 -14
15 -29 74 -41 22 -4 27 -11 25 -27 -2 -17 -9 -20 -32 -18 l-30 3 25 -20 c19
-16 21 -20 7 -21 -9 0 -20 5 -23 10 -3 6 -19 10 -35 10 -16 0 -32 -4 -35 -10
-3 -5 -22 -10 -41 -10 -19 0 -34 5 -34 10 0 6 5 10 10 10 24 0 7 18 -22 25
-23 5 -27 9 -15 12 9 2 17 11 17 18 0 9 15 15 43 17 30 2 41 7 39 17 -6 29 14
52 31 34z m167 -107 c0 -7 -9 -16 -20 -19 -11 -3 -20 -12 -20 -20 0 -22 41
-50 54 -37 12 12 36 13 36 2 0 -12 -59 -44 -69 -38 -5 4 -21 2 -35 -4 -17 -6
-27 -6 -32 1 -3 6 3 13 15 16 24 6 28 21 6 29 -21 8 -19 17 13 52 29 32 52 41
52 18z m130 -5 c0 -9 -42 -28 -74 -33 -28 -4 -31 21 -4 31 30 12 78 14 78 2z
m-260 -60 c0 -12 -20 -25 -27 -18 -7 7 6 27 18 27 5 0 9 -4 9 -9z"/>
<path d="M4638 9563 c6 -2 18 -2 25 0 6 3 1 5 -13 5 -14 0 -19 -2 -12 -5z"/>
<path d="M5798 8903 c7 -3 16 -2 19 1 4 3 -2 6 -13 5 -11 0 -14 -3 -6 -6z"/>
<path d="M5714 8526 c-6 -17 2 -36 17 -36 12 0 12 37 -1 45 -6 3 -13 -1 -16
-9z"/>
<path d="M4458 7582 c-8 -30 8 -50 17 -22 4 12 3 26 -3 32 -6 6 -11 2 -14 -10z"/>
<path d="M4212 6528 c3 -25 34 -36 52 -18 8 8 6 15 -8 26 -29 21 -48 18 -44
-8z"/>
<path d="M4236 6323 c-3 -4 -6 -15 -6 -25 0 -10 -7 -21 -15 -24 -8 -4 -15 -14
-15 -25 0 -20 -28 -39 -47 -32 -7 3 -13 1 -13 -4 0 -16 24 -33 46 -33 12 0 27
-7 34 -15 16 -19 34 -19 49 -1 7 8 27 17 46 20 22 4 35 13 35 22 0 11 -6 13
-22 8 -13 -4 -26 -11 -29 -17 -8 -11 -29 -1 -29 14 0 5 7 9 15 9 8 0 15 5 15
10 0 6 -9 10 -20 10 -26 0 -47 38 -25 46 8 3 15 12 15 19 0 14 -25 27 -34 18z"/>
<path d="M4190 6310 c0 -5 5 -10 10 -10 6 0 10 5 10 10 0 6 -4 10 -10 10 -5 0
-10 -4 -10 -10z"/>
<path d="M4303 6304 c-8 -20 8 -36 26 -25 15 10 8 41 -9 41 -6 0 -13 -7 -17
-16z"/>
<path d="M4400 6206 c0 -2 7 -9 15 -16 12 -10 15 -10 15 4 0 9 -7 16 -15 16
-8 0 -15 -2 -15 -4z"/>
<path d="M4340 6150 c0 -5 7 -10 16 -10 8 0 12 5 9 10 -3 6 -10 10 -16 10 -5
0 -9 -4 -9 -10z"/>
<path d="M4116 6125 c4 -10 -4 -19 -22 -26 -18 -7 -24 -13 -16 -16 21 -8 62
18 62 39 0 10 -7 18 -15 18 -9 0 -12 -6 -9 -15z"/>
<path d="M4020 6015 c0 -8 9 -15 20 -15 11 0 20 7 20 15 0 8 -9 15 -20 15 -11
0 -20 -7 -20 -15z"/>
<path d="M3790 4990 c0 -5 5 -10 11 -10 5 0 7 5 4 10 -3 6 -8 10 -11 10 -2 0
-4 -4 -4 -10z"/>
<path d="M3770 4932 c0 -4 9 -8 20 -9 11 -1 20 2 20 8 0 5 -9 9 -20 9 -11 0
-20 -4 -20 -8z"/>
<path d="M4162 4438 c-8 -8 -9 -15 0 -25 9 -11 13 -10 24 4 7 10 14 21 14 26
0 11 -25 8 -38 -5z"/>
<path d="M4205 4370 c-3 -5 -5 -10 -3 -11 28 -7 38 -5 38 7 0 16 -26 19 -35 4z"/>
<path d="M5614 6934 c-18 -7 -4 -44 16 -44 16 0 50 29 50 43 0 8 -49 8 -66 1z"/>
<path d="M5578 6903 c7 -3 16 -2 19 1 4 3 -2 6 -13 5 -11 0 -14 -3 -6 -6z"/>
<path d="M5245 6140 c-3 -5 -4 -10 -1 -10 2 0 11 -3 20 -6 11 -4 16 -1 16 10
0 18 -25 22 -35 6z"/>
<path d="M5955 5930 c3 -5 8 -10 11 -10 2 0 4 5 4 10 0 6 -5 10 -11 10 -5 0
-7 -4 -4 -10z"/>
<path d="M4320 4095 c0 -9 5 -15 11 -13 6 2 11 8 11 13 0 5 -5 11 -11 13 -6 2
-11 -4 -11 -13z"/>
<path d="M22 10709 l-22 -8 0 -279 c0 -266 1 -280 20 -297 11 -10 20 -26 20
-36 0 -47 23 -62 46 -31 16 20 19 122 4 122 -15 0 -12 30 4 36 8 3 20 19 26
35 7 16 19 29 26 29 9 0 14 11 14 30 0 17 6 48 12 70 11 34 17 40 43 42 16 0
37 1 45 2 20 1 25 65 8 89 -21 28 -66 7 -75 -33 -6 -31 -35 -56 -53 -45 -5 3
-20 -1 -34 -10 -22 -14 -25 -14 -40 0 -19 19 -20 28 -6 75 6 19 11 70 12 113
1 88 -11 111 -50 96z"/>
<path d="M520 10708 c0 -6 -3 -8 -7 -5 -9 9 -33 -12 -33 -29 0 -8 10 -14 23
-13 21 0 21 1 2 9 -18 8 -17 9 7 9 20 1 26 6 25 21 -1 21 -17 29 -17 8z"/>
<path d="M467 10627 c-25 -31 -20 -101 8 -105 16 -2 23 6 34 43 13 43 12 48
-5 66 -19 18 -19 18 -37 -4z"/>
<path d="M320 10289 c0 -18 2 -19 15 -9 15 12 12 30 -6 30 -5 0 -9 -10 -9 -21z"/>
<path d="M202 10083 c5 -26 38 -29 38 -4 0 15 -6 21 -21 21 -14 0 -19 -5 -17
-17z"/>
<path d="M95 10003 c-5 -13 -9 -14 -12 -5 -4 10 -8 10 -19 1 -16 -13 -19 -55
-4 -64 6 -3 10 -23 10 -43 0 -25 3 -32 9 -23 6 9 11 10 15 2 4 -6 -4 -25 -18
-42 -30 -35 -33 -70 -10 -90 14 -11 19 -10 38 12 45 55 52 65 70 107 16 34 17
47 8 67 -7 14 -17 24 -24 23 -7 -2 -17 14 -22 35 -10 39 -29 49 -41 20z"/>
<path d="M151 9609 c-1 -9 -10 -24 -21 -34 -27 -24 -25 -35 5 -35 18 0 25 5
25 20 0 11 6 20 13 20 8 0 9 3 1 8 -6 4 -14 14 -17 22 -5 13 -6 13 -6 -1z"/>
<path d="M102 9203 c2 -10 10 -18 18 -18 8 0 16 8 18 18 2 12 -3 17 -18 17
-15 0 -20 -5 -18 -17z"/>
<path d="M65 9081 c-5 -10 -4 -16 3 -19 7 -2 12 -10 12 -18 0 -19 26 -18 34 1
3 10 -1 15 -14 15 -10 0 -20 8 -22 18 -3 14 -5 15 -13 3z"/>
<path d="M0 8955 c0 -29 12 -32 34 -9 23 22 20 34 -9 34 -20 0 -25 -5 -25 -25z"/>
<path d="M0 8889 c0 -5 5 -7 10 -4 5 3 10 8 10 11 0 2 -4 4 -10 4 -5 0 -10 -5
-10 -11z"/>
<path d="M92 8885 c-7 -8 -24 -15 -37 -15 -18 0 -24 -6 -27 -27 -3 -28 30
-125 49 -144 16 -16 43 2 43 29 0 14 12 43 26 63 l26 38 -29 35 c-32 40 -33
41 -51 21z"/>
<path d="M300 8810 c0 -5 5 -10 10 -10 6 0 10 5 10 10 0 6 -4 10 -10 10 -5 0
-10 -4 -10 -10z"/>
<path d="M4200 3788 c0 -9 5 -20 10 -23 13 -8 13 5 0 25 -8 13 -10 13 -10 -2z"/>
<path d="M4245 3730 c-4 -12 -22 -49 -42 -83 -19 -34 -44 -87 -55 -117 -11
-30 -23 -64 -28 -75 -9 -21 -24 -91 -35 -160 -3 -22 -21 -87 -40 -145 -18 -58
-38 -123 -45 -145 -6 -22 -15 -53 -20 -68 l-9 -28 40 33 c65 53 89 66 138 73
52 8 120 42 122 62 1 7 3 28 5 46 3 17 4 46 3 62 -1 52 0 78 7 170 4 50 7 158
8 240 1 147 0 150 -21 153 -14 2 -23 -3 -28 -18z"/>
<path d="M7080 3475 c-7 -9 -10 -18 -7 -22 8 -7 37 15 37 28 0 14 -16 11 -30
-6z"/>
<path d="M946 879 c-10 -6 -34 -9 -52 -6 -31 5 -39 1 -74 -36 -23 -25 -50 -69
-66 -109 -29 -75 -36 -84 -56 -65 -7 7 -35 28 -62 46 -46 32 -51 33 -84 21
-27 -10 -39 -10 -58 0 -21 12 -29 9 -79 -30 -88 -68 -106 -125 -114 -374 -7
-212 -9 -216 -86 -165 -28 18 -52 37 -53 41 -2 4 -14 8 -27 8 -13 0 -26 4 -29
9 -3 5 -22 12 -41 15 -25 5 -39 14 -45 32 -5 13 -12 24 -15 24 -3 0 -5 -43 -5
-95 l0 -94 70 -21 c38 -11 96 -33 128 -48 l59 -28 346 1 c191 1 350 4 354 8 3
4 -3 16 -15 27 -12 12 -22 24 -23 28 0 4 -2 16 -4 27 -15 86 -15 98 1 116 17
19 18 19 39 -1 21 -19 23 -20 36 -4 9 11 14 39 13 76 -1 32 1 56 4 53 6 -6 62
216 62 244 0 8 12 53 26 99 l26 84 -38 39 c-23 23 -47 39 -61 39 -16 0 -27 8
-33 25 -11 28 -16 29 -44 14z m18 -75 c4 -10 13 -13 26 -9 35 11 60 -11 60
-55 0 -42 -35 -120 -53 -120 -6 0 -23 12 -38 26 l-27 25 8 -42 c5 -24 4 -54
-1 -67 -13 -33 -11 -36 8 -21 15 13 16 12 9 -11 -9 -27 -9 -39 0 -119 4 -34 3
-51 -4 -47 -5 3 -12 -1 -16 -9 -3 -8 -10 -15 -15 -15 -6 0 -8 7 -5 15 4 9 0
15 -9 15 -10 0 -17 15 -21 45 -4 24 -11 47 -17 50 -5 4 -9 16 -9 28 0 30 -37
126 -56 144 -10 11 -13 25 -8 47 18 83 64 124 150 135 7 0 15 -6 18 -15z
m-430 -119 c3 -8 16 -15 28 -15 57 0 65 -8 72 -72 4 -36 3 -65 -2 -70 -17 -17
-67 14 -70 42 -2 14 -8 29 -13 35 -5 5 -9 19 -9 32 0 13 -4 23 -9 23 -14 0
-21 -58 -11 -86 6 -14 10 -54 10 -90 0 -38 6 -77 15 -94 11 -21 15 -54 13
-112 -2 -81 14 -150 39 -167 7 -4 6 -20 -1 -46 -16 -55 -42 -57 -94 -8 -52 47
-84 73 -92 73 -4 0 -16 17 -28 38 -31 55 -47 198 -31 282 15 79 62 181 101
221 32 31 72 38 82 14z m443 -367 c-3 -8 -6 -5 -6 6 -1 11 2 17 5 13 3 -3 4
-12 1 -19z"/>
</g>
</svg>
